<svg width="512" height="512" xmlns="http://www.w3.org/2000/svg"><g fill="none" fill-rule="nonzero"><path fill="#CB1B14" d="M0 0h512v512H0z"/><path d="M223.47 157.862c-4.78 21.094 9.064 57.02 32.465 57.02 23.237 0 37.08-35.926 32.301-57.02-3.626-16.15-17.798-26.862-32.3-26.862-14.668 0-28.676 10.712-32.466 26.862zm-68.062 14.832c-4.12 17.798 7.746 48.286 27.522 48.286 19.775 0 31.64-30.488 27.521-48.286-3.131-13.678-15.162-22.907-27.521-22.907-12.36 0-24.39 9.229-27.522 22.907zm146.012 0c-4.12 17.798 7.746 48.286 27.357 48.286 19.775 0 31.641-30.488 27.521-48.286-3.131-13.678-15.161-22.907-27.521-22.907-12.196 0-24.226 9.229-27.357 22.907zm-9.723 188.365l20.6-70.863c12.854-41.035-11.701-66.25-56.362-66.25-44.825 0-69.38 25.215-56.69 66.25l20.764 70.863C223.8 372.925 239.456 381 255.935 381c16.15 0 31.971-8.075 35.762-19.94zM191.169 235.318c-8.075 11.041-15.82 30.158-6.921 59.163l18.457 62.458c-5.603 3.296-12.69 5.11-19.775 5.11-14.008 0-27.192-6.758-30.488-16.975l-17.634-60.152c-10.712-34.772 10.053-56.031 48.122-56.031 4.45 0 8.899.33 13.019.988-1.648 1.648-3.296 3.626-4.78 5.439zm137.608-6.427c38.068 0 58.998 21.259 48.12 56.031l-17.633 60.152c-3.296 10.217-16.48 16.974-30.487 16.974-7.087 0-14.173-1.813-19.776-5.109l18.292-62.129c9.064-29.334 1.319-48.45-6.921-59.492-1.319-1.813-2.967-3.79-4.615-5.439 4.12-.659 8.405-.988 13.02-.988z" fill="#FFF"/></g></svg>
