<svg xmlns="http://www.w3.org/2000/svg" xmlns:xlink="http://www.w3.org/1999/xlink" version="1.1" id="Layer_1" x="0px" y="0px" viewBox="0 180 612 612" enable-background="new 0 180 612 612" xml:space="preserve">
<rect y="180" fill="#E41B13" width="612" height="612"/>
<g>
	<path fill="#FFFFFF" d="M249.8 360.8c-1 5.6-1.3 11.6-0.9 18c0.4 6.4 1.8 12.8 4.3 19.3c2.5 6.5 5.5 12.4 8.8 17.7 c3.4 5.3 7.6 9.5 12.8 12.8c5.2 3.3 10.7 4.9 16.4 4.9c7 0 13.6-2.5 19.8-7.6c6.2-5 10.9-11.3 14.3-18.7c3.4-7.4 5.9-15.3 7.5-23.8 c1.6-8.4 1.5-16-0.3-22.7c-2.2-10.1-7.3-18.3-15.2-24.7s-16.6-9.6-26-9.6c-9.5 0-18.2 3.2-26.1 9.6S252.2 350.7 249.8 360.8z M163 379.7c-1.8 7.7-1.5 16.3 0.8 25.9c2.4 9.5 6.7 17.9 12.9 25c6.2 7.1 13.3 10.7 21.3 10.7c8 0 15.1-3.6 21.3-10.7 c6.2-7.1 10.5-15.5 12.9-25c2.4-9.5 2.7-18.1 0.8-25.9c-2-8.5-6.3-15.6-13-21c-6.7-5.5-14.1-8.2-22.1-8.2c-8 0-15.3 2.7-22.1 8.2 C169.3 364.2 165 371.2 163 379.7z M349.2 379.7c-1.8 7.7-1.5 16.3 0.8 25.9c2.4 9.5 6.7 17.9 12.9 25c6.2 7.1 13.3 10.7 21.1 10.7 c8 0 15.1-3.6 21.3-10.7s10.5-15.5 12.9-25c2.4-9.5 2.7-18.1 0.8-25.9c-2-8.5-6.3-15.6-13-21c-6.7-5.5-14.1-8.2-22.1-8.2 c-8 0-15.3 2.7-22 8.2C355.5 364.2 351.2 371.2 349.2 379.7z M336.8 620l26.3-90.4c5.2-17.7 5.6-32.7 1.3-45.2 c-4.3-12.5-12.9-22.1-25.6-29c-12.8-6.9-28.6-10.3-47.5-10.3c-29 0-50.3 7.6-63.9 22.9c-13.6 15.3-16.4 35.8-8.4 61.6l26.5 90.4 c2.4 7.4 8 13.5 16.7 18.3c8.8 4.8 18.5 7.1 29.1 7.1c10.5 0 20.1-2.4 28.9-7.1C328.9 633.5 334.5 627.4 336.8 620z M208.6 459.6 c-15 20.6-17.9 45.8-8.8 75.5l23.5 79.7c-7.4 4.3-15.8 6.5-25.2 6.5c-9.1 0-17.3-2-24.7-6c-7.4-4-12.1-9.2-14.2-15.7l-22.5-76.7 c-6.7-21.9-4.3-39.2 7.1-52.1c11.5-12.9 29.6-19.3 54.2-19.3c5.7 0 11.3 0.4 16.6 1.3C213.2 454.2 211.1 456.5 208.6 459.6z M384.1 451.4c24.7 0 42.8 6.4 54.3 19.3s13.9 30.3 7 52.1L423 599.6c-2.1 6.4-6.8 11.7-14.2 15.7c-7.4 4-15.6 6-24.7 6 c-9.4 0-17.8-2.2-25.2-6.5l23.3-79.3c9.4-30.1 6.4-55.4-8.8-75.9c-1.8-2.5-3.8-4.8-5.9-6.9C372.9 451.8 378.4 451.4 384.1 451.4z"/>
</g>
</svg>
